<?xml version="1.0" encoding="utf-8"?>

<!DOCTYPE svg PUBLIC "-//W3C//DTD SVG 1.1//EN" "http://www.w3.org/Graphics/SVG/1.1/DTD/svg11.dtd">
<!-- Uploaded to: SVG Repo, www.svgrepo.com, Generator: SVG Repo Mixer Tools -->
<svg height="800px" width="800px" version="1.1" id="_x32_" xmlns="http://www.w3.org/2000/svg" xmlns:xlink="http://www.w3.org/1999/xlink" 
	 viewBox="0 0 512 512"  xml:space="preserve">
<style type="text/css">
	.st0{fill:#000000;}
</style>
<g>
	<path class="st0" d="M485.862,140.176c-9.23-12.603-23.486-20.566-39.043-21.799L139.673,94.053l-5.446-30.884
		c-5.257-29.676-28.872-52.657-58.676-57.066L35.704,0.187C26.2-1.209,17.364,5.359,15.951,14.846
		c-1.421,9.512,5.138,18.356,14.65,19.761v-0.008l39.856,5.907c14.967,2.218,26.868,13.785,29.505,28.71l54.009,306.134
		c5.077,28.735,30.027,49.669,59.215,49.678h221.962c9.599,0,17.398-7.792,17.398-17.39c0-9.607-7.8-17.398-17.398-17.398H213.186
		c-12.286,0.009-22.835-8.836-24.95-20.934l-7.208-40.91h237.81c24.984,0,46.689-17.252,52.297-41.603l23.734-102.847
		C498.38,168.739,495.083,152.746,485.862,140.176z M202.304,299.404h-24.248l-6.55-35.738h30.798V299.404z M202.304,240.472
		h-35.052l-7.963-43.487h43.015V240.472z M202.304,173.8h-47.279l-9.188-50.19l56.466,4.469V173.8z M268.01,299.404H225.49v-35.738
		h42.519V299.404z M268.01,240.472H225.49v-43.487h42.519V240.472z M268.01,173.8H225.49v-43.864l42.519,3.365V173.8z
		 M333.706,299.404h-42.51v-35.738h42.51V299.404z M333.706,240.472h-42.51v-43.487h42.51V240.472z M333.706,173.8h-42.51v-38.666
		l42.51,3.365V173.8z M399.42,299.404H356.9v-35.738h42.52V299.404z M399.42,240.472H356.9v-43.487h42.52V240.472z M399.42,173.8
		H356.9v-33.46l42.52,3.356V173.8z M442.897,280.286c-2.32,10-10.403,17.295-20.292,18.802v-35.421h24.136L442.897,280.286z
		 M452.076,240.472h-29.47v-43.487h39.505L452.076,240.472z M422.606,173.8v-28.264l21.919,1.747
		c7.158,0.556,13.708,4.212,17.963,10.034c3.519,4.795,5.026,10.643,4.572,16.482H422.606z"/>
	<path class="st0" d="M226.458,450.165c-17.081,0-30.918,13.853-30.918,30.926c0,17.073,13.837,30.909,30.918,30.909
		c17.073,0,30.918-13.836,30.918-30.909C257.376,464.018,243.531,450.165,226.458,450.165z"/>
	<path class="st0" d="M392.647,450.165c-17.073,0-30.909,13.853-30.909,30.926c0,17.073,13.836,30.909,30.909,30.909
		c17.073,0,30.926-13.836,30.926-30.909C423.572,464.018,409.72,450.165,392.647,450.165z"/>
</g>
</svg>